<svg width="234" height="234" viewBox="0 0 234 234" fill="none" xmlns="http://www.w3.org/2000/svg">
<path d="M189.603 186.022C150.422 191.084 110.265 186.241 78.5878 159.707C49.9958 135.756 42.0437 100.913 79.5624 81.1874C97.3229 71.8498 124.622 72.6504 137.842 89.4849C152.571 108.24 125.497 123.874 109.681 124.431C72.7395 125.733 35.6059 98.3319 30.9449 58.0994C25.4252 10.4548 74.7285 12.4241 74.6078 12.729" stroke="#131313" stroke-width="6" stroke-miterlimit="1.5" stroke-linecap="round" stroke-linejoin="round"/>
<path d="M163.641 221.563C164.491 217.277 167.019 213.813 169.364 210.228C177.064 198.454 189.12 188.235 203.112 184.926C187.594 183.589 167.898 176.622 160.646 161.95" stroke="#131313" stroke-width="6" stroke-miterlimit="1.5" stroke-linecap="round" stroke-linejoin="round"/>
</svg>
