<svg width="60" height="60" viewBox="0 0 60 60" fill="none" xmlns="http://www.w3.org/2000/svg">
<rect width="60" height="60" rx="30" fill="#384897"/>
<path d="M31.7734 19.2329C33.7819 19.7904 34.2317 20.242 34.7858 22.2607C35.3405 20.242 35.7897 19.7898 37.7981 19.2329C35.7897 18.6754 35.3399 18.2238 34.7858 16.2051C34.2311 18.2238 33.7819 18.676 31.7734 19.2329Z" fill="white"/>
<path d="M46.1465 27.3376C45.5223 28.1849 44.5476 29.1695 43.2487 30.2655C43.2079 30.2998 43.167 30.3341 43.1256 30.3691C42.7507 30.6828 42.3545 31.0007 41.9394 31.3224C41.7005 31.508 41.4548 31.6943 41.2031 31.8824C39.3056 33.2964 37.0649 34.7631 34.6395 36.1766C34.0623 36.5129 33.4747 36.8462 32.8792 37.1752C32.6128 37.3223 32.3477 37.4669 32.0825 37.6096C30.6556 38.3779 29.2451 39.0849 27.8834 39.7196C25.6226 40.771 23.4953 41.6165 21.6472 42.1918C21.3808 42.2751 21.1175 42.3535 20.8663 42.424C19.6363 42.7689 18.5952 42.9613 17.7711 42.9962C17.6821 42.9999 17.5961 43.0017 17.512 43.0017C16.6251 43.0017 15.976 42.791 15.5761 42.3719C15.4512 42.2432 15.3512 42.0925 15.2738 41.924C15.2074 41.7788 15.1629 41.6263 15.1409 41.4688C15.044 40.8133 15.3207 40.0542 15.9754 39.1639C16.321 38.6953 16.7739 38.1843 17.3292 37.6353L19.7558 37.631C18.5976 38.6156 17.7388 39.485 17.2012 40.2159C16.769 40.801 16.6855 41.1135 16.6696 41.2317C16.7629 41.2801 17.0268 41.3726 17.6528 41.3469C18.5233 41.3089 19.7058 41.0608 21.1656 40.6056C22.8272 40.0879 24.7266 39.3435 26.7496 38.4202C27.3086 38.1653 27.8779 37.8976 28.4539 37.6163C29.3707 37.1691 30.3063 36.69 31.2499 36.1827C31.5425 36.0259 31.8369 35.8659 32.1307 35.7036C34.8407 34.2074 37.3685 32.6231 39.5086 31.0883C39.7896 30.8868 40.0632 30.6864 40.3308 30.4873C40.7685 30.1608 41.186 29.8373 41.5828 29.5187C41.8187 29.3294 42.0467 29.1419 42.2667 28.9556C43.4761 27.9368 44.3703 27.038 44.9231 26.2862C45.3547 25.6999 45.4388 25.3881 45.454 25.2704C45.3608 25.2208 45.0975 25.1283 44.4715 25.154C43.601 25.1914 42.4185 25.4414 40.9587 25.8954C39.7207 26.2807 38.3498 26.7935 36.8942 27.4105C36.1323 27.0999 35.3966 26.8113 34.7304 26.5558C36.8077 25.6092 38.7619 24.8434 40.4759 24.3092C42.054 23.819 43.3572 23.5476 44.3514 23.5059C45.3724 23.46 46.1093 23.6701 46.5475 24.1303C46.6725 24.2601 46.7719 24.4096 46.8487 24.5781C46.9151 24.7233 46.959 24.8753 46.9815 25.0333C47.0785 25.6889 46.8023 26.448 46.1477 27.3382L46.1465 27.3376Z" fill="#F6F1ED"/>
<path d="M30.1415 33.9072C30.0117 33.9072 29.88 33.8716 29.7624 33.7963C29.4308 33.5855 29.332 33.1438 29.5417 32.8105L32.1146 28.7215C32.3243 28.3876 32.7632 28.2884 33.0954 28.4997C33.4269 28.7105 33.5257 29.1522 33.316 29.4855L30.7431 33.5745C30.6078 33.7895 30.3774 33.9072 30.1415 33.9072Z" fill="white"/>
<path d="M33.3232 33.8743C33.197 33.8743 33.069 33.8406 32.9538 33.7696C32.6186 33.5637 32.5131 33.1244 32.7173 32.7875L34.6319 29.6353C34.8367 29.2983 35.2738 29.1923 35.609 29.3976C35.9443 29.6034 36.0497 30.0427 35.8455 30.3797L33.9309 33.5319C33.7968 33.7524 33.5634 33.8743 33.3232 33.8743Z" fill="white"/>
<path d="M21.5443 36.1982L31.2482 36.1816C30.304 36.6883 29.369 37.168 28.4522 37.6153L19.7541 37.6306L17.3275 37.6349H17.1922C16.8002 37.6349 16.4821 37.3157 16.4814 36.9217C16.4814 36.5272 16.7984 36.2068 17.191 36.2061L18.9086 36.2031L21.5443 36.1988V36.1982Z" fill="white"/>
<path d="M40.3296 30.487C37.5099 29.1177 33.7843 27.6976 31.7076 26.9587L27.2775 33.6527L26.0938 32.8611L30.8299 25.7052C31.0085 25.435 31.3468 25.3198 31.6528 25.4258C31.7978 25.476 33.045 25.911 34.7291 26.5555C35.3954 26.811 36.1305 27.0996 36.893 27.4102C38.4614 28.0498 40.1431 28.7832 41.5816 29.5184C41.1848 29.837 40.7672 30.1605 40.3296 30.487Z" fill="white"/>
<path d="M45.7797 35.5744C45.2573 36.8573 43.9675 37.5919 42.2413 37.5919L32.082 37.6091C32.3472 37.4663 32.6129 37.3217 32.8787 37.1747C33.4748 36.8457 34.0624 36.5124 34.6391 36.176L42.2394 36.1632C43.361 36.1632 44.1711 35.7514 44.4637 35.0328C44.7696 34.2804 44.4667 33.2983 43.6901 32.5313C43.3226 32.1673 42.7082 31.7562 41.9389 31.3225C42.3546 31.0008 42.7502 30.6828 43.1251 30.3691C43.7822 30.7668 44.3228 31.1521 44.6867 31.5124C45.8949 32.7059 46.3136 34.262 45.779 35.5744H45.7797Z" fill="white"/>
<path d="M17.3949 34.7364C17.3784 34.7364 17.3613 34.7364 17.3449 34.7346C16.953 34.707 16.6579 34.3657 16.6854 33.9724L16.9889 29.6133C17.3479 25.5513 19.3887 25.3325 20.008 25.3626C21.2685 25.3969 21.6769 26.2209 22.1523 26.7723C22.9051 27.6448 23.0977 28.372 25.0105 28.0271C26.4831 27.7618 27.7674 25.6131 28.1283 24.7229C28.2764 24.3578 28.6903 24.1813 29.0542 24.3302C29.4175 24.4785 29.593 24.8945 29.4455 25.2602C29.3791 25.425 27.7668 29.0809 25.0916 29.454C22.423 29.8259 21.8927 28.7114 20.9582 27.548C20.5389 27.0253 20.4584 26.8048 19.9751 26.7913C19.3363 26.7662 18.6024 27.5167 18.4067 29.7266L18.1044 34.0723C18.0782 34.4491 17.7661 34.737 17.3961 34.737L17.3949 34.7364Z" fill="white"/>
</svg>
