<svg width="666" height="415" viewBox="0 0 666 415" fill="none" xmlns="http://www.w3.org/2000/svg">
<path d="M240.595 0C297.964 0.134142 354.813 6.3583 409.372 23.8772C469.759 43.274 555.477 71.1287 598.901 116.925C634.355 153.745 627.424 208.325 653.809 252.508C661.068 264.876 666.531 277.834 665.959 292.482C665.334 308.955 665.152 325.642 662.42 341.819C658.128 367.118 638.692 380.452 619.595 393.196C590.169 412.834 556.658 414.148 523.33 414.98C514 415.13 504.675 414.43 495.465 412.888C430.264 404.624 399.902 412.888 321.354 409.48C254.463 406.476 251.627 408.568 177.58 392.954C148.961 386.918 120.029 382.706 91.5138 375.972C73.8738 371.813 61.3072 361.163 51.0563 346.648C32.8439 321.001 17.4154 293.663 7.52863 263.695C-2.6443 233.004 -3.71103 202.42 11.8476 171.835C32.7727 129.974 56.8614 89.8755 83.8906 51.9128C107.463 19.2359 141.806 8.98748 177.997 3.86327C198.629 0.778017 219.729 1.15362 240.595 0Z" fill="#F6F1ED"/>
</svg>
