<svg width="110" height="111" viewBox="0 0 110 111" fill="none" xmlns="http://www.w3.org/2000/svg">
<path d="M58.1557 1.43686C57.2368 0.133604 55.6508 -0.130079 54.4781 0.051158C53.3055 0.232395 51.8717 0.962783 51.3852 2.48325C51.1174 3.32026 51.3102 4.21021 51.4271 4.65495C51.4974 4.92274 51.5764 5.15517 51.6374 5.32025C51.6483 5.34994 51.6588 5.37776 51.6687 5.40354C51.8622 6.80352 51.8238 8.34912 51.685 10.1393C51.5168 12.3103 51.38 14.5044 51.083 16.6586C51.0201 17.1142 50.9351 18.021 51.3011 18.8196C51.9658 20.2704 53.4765 20.8225 54.6624 20.8609C55.8482 20.8993 57.3912 20.4462 58.1477 19.0415C58.5641 18.2682 58.5374 17.3578 58.504 16.8991C58.3534 14.8357 58.6753 12.7554 58.8347 10.6986C58.9864 8.74176 59.0769 6.5417 58.7585 4.3178C58.7604 4.28742 58.7623 4.25432 58.7641 4.21881C58.7728 4.04295 58.7786 3.79743 58.7656 3.52077C58.744 3.06131 58.6616 2.1543 58.1557 1.43686Z" fill="black"/>
<path d="M71.1929 4.1423C70.5474 2.68276 69.0442 2.11047 67.8589 2.05616C66.6737 2.00185 65.1249 2.43429 64.3498 3.82873C63.9232 4.59636 63.9378 5.50703 63.9651 5.96618C63.9816 6.24265 64.0135 6.48615 64.0409 6.66006C64.0458 6.69133 64.0506 6.72068 64.0553 6.74792C63.9705 8.15876 63.6299 9.66649 63.1429 11.3942C62.6224 13.2407 62.0238 15.0647 61.577 16.9318C61.5641 16.9588 61.5503 16.9882 61.5358 17.0198C61.4622 17.1796 61.3655 17.4052 61.2746 17.6667C61.1237 18.101 60.8626 18.9731 61.0648 19.8285C61.4322 21.3824 62.805 22.2226 63.9601 22.4948C65.1152 22.7671 66.7168 22.6281 67.7338 21.4006C68.2937 20.7248 68.446 19.827 68.5031 19.3706C68.5375 19.0958 68.5508 18.8506 68.5557 18.6746C68.5566 18.6416 68.5572 18.6107 68.5576 18.5821C68.9801 16.8211 69.5518 15.0992 70.0429 13.357C70.5752 11.4685 71.0953 9.3294 71.219 7.08607C71.2269 7.05666 71.2353 7.02459 71.2439 6.99012C71.287 6.81943 71.3408 6.57986 71.3823 6.30604C71.4511 5.85131 71.5482 4.94576 71.1929 4.1423Z" fill="black"/>
<path fill-rule="evenodd" clip-rule="evenodd" d="M104.882 33.2795C104.701 34.27 103.424 34.8081 103.424 34.8081C101.926 36.3792 100.058 37.3844 98.2485 38.2069C97.5905 38.5061 96.9566 38.7753 96.3424 39.0361C95.1909 39.5252 94.1089 39.9846 93.0682 40.5567C93.0682 40.5567 92.1107 41.4625 91.2553 41.5533C90.5602 41.6271 90.105 41.7472 89.3062 41.2292C87.5342 40.08 87.0241 37.0329 87.7288 35.581C88.1197 34.7755 89.5417 34.5844 89.5417 34.5844C90.687 33.9548 91.9766 33.4059 93.2019 32.8844C93.787 32.6354 94.3575 32.3926 94.8905 32.1502C96.6225 31.3628 98.1369 30.5144 99.2912 29.304C99.2912 29.304 99.8964 27.8729 100.749 27.7754C101.766 27.6593 102.781 28.109 103.764 29.3674C104.793 30.6839 105.108 32.0439 104.882 33.2795Z" fill="black"/>
<path d="M109.031 49.8552C110.156 48.7265 110.148 47.1116 109.774 45.9806C109.399 44.8497 108.442 43.5523 106.868 43.3255C106.002 43.2007 105.161 43.5409 104.744 43.7312C104.493 43.8458 104.278 43.963 104.127 44.051C104.099 44.0669 104.074 44.0819 104.05 44.096C102.709 44.5225 101.186 44.7437 99.4055 44.9065C96.7019 45.1539 93.8742 45.0181 91.2602 45.7752C90.3964 46.0254 89.923 46.7528 89.6989 47.1899C89.4359 47.703 89.2692 48.2972 89.1972 48.8636C89.1268 49.4176 89.13 50.0796 89.3286 50.6955C89.5317 51.3257 90.0339 52.1292 91.0542 52.3611C91.14 52.3806 91.225 52.4003 91.3094 52.4199C91.7695 52.5264 92.2109 52.6286 92.654 52.6725C93.2318 52.7298 93.7845 52.692 94.513 52.5825C96.3445 52.3073 98.2119 52.2497 100.056 52.081C102.002 51.903 104.176 51.6237 106.305 50.9353C106.335 50.9321 106.368 50.9285 106.403 50.9243C106.577 50.9034 106.819 50.868 107.088 50.8087C107.535 50.7102 108.412 50.4765 109.031 49.8552Z" fill="black"/>
<path d="M85.366 11.8585C85.3669 10.2614 84.2251 9.1246 83.1642 8.59095C82.1033 8.0573 80.5132 7.81986 79.2408 8.77737C78.5404 9.30447 78.1852 10.1424 78.0244 10.5731C77.9276 10.8324 77.8581 11.0679 77.8128 11.238C77.8046 11.2686 77.7972 11.2974 77.7904 11.3242C76.1957 14.4096 73.4991 16.8754 71.4051 19.6164C71.3824 19.6359 71.3579 19.6571 71.3318 19.68C71.1999 19.796 71.0202 19.9626 70.8314 20.1644C70.5178 20.4995 69.9263 21.1898 69.7649 22.0539C69.4717 23.6236 70.386 24.9518 71.3312 25.6723C72.2763 26.3928 73.7959 26.9199 75.2218 26.2137C76.3769 25.6416 76.9975 24.1243 77.8137 23.1218C78.7236 22.0042 79.6667 20.9168 80.5864 19.8077C81.837 18.2997 83.1778 16.5578 84.1987 14.5587C84.2177 14.535 84.2383 14.5091 84.2602 14.4812C84.3686 14.3428 84.5147 14.1459 84.6634 13.9127C84.9104 13.5254 85.3655 12.7376 85.366 11.8585Z" fill="black"/>
<path d="M96.8454 20.6485C97.2108 19.0942 96.3588 17.7247 95.448 16.9609C94.5372 16.1972 93.0436 15.5998 91.5866 16.2387C90.7845 16.5905 90.2475 17.3243 89.9927 17.7065C89.8393 17.9366 89.718 18.1498 89.635 18.3049C89.6201 18.3328 89.6063 18.3591 89.5936 18.3836C88.6762 19.4553 87.4967 20.4485 86.0683 21.5278C85.6137 21.8713 85.1264 22.2284 84.615 22.6032L84.5961 22.617C83.3279 23.5464 82.106 24.5182 80.8023 25.3855C80.4206 25.6395 79.6873 26.1751 79.333 26.979C78.6894 28.4394 79.2762 29.9428 80.0318 30.8618C80.7873 31.7808 82.1461 32.6438 83.6952 32.2849C84.548 32.0873 85.2101 31.4651 85.5305 31.1365C86.9716 29.6586 88.7377 28.5253 90.3789 27.2852C91.9404 26.1054 93.643 24.7186 95.0929 23.008C95.1169 22.9893 95.1429 22.9689 95.1705 22.9467C95.3076 22.837 95.4948 22.679 95.6927 22.4862C96.0215 22.1661 96.6443 21.5042 96.8454 20.6485Z" fill="black"/>
<path d="M38.8071 4.1423C39.4526 2.68276 40.9558 2.11047 42.141 2.05616C43.3263 2.00185 44.8751 2.43429 45.6502 3.82873C46.0768 4.59636 46.0622 5.50703 46.0349 5.96618C46.0184 6.24265 45.9865 6.48615 45.9591 6.66006C45.9542 6.69133 45.9494 6.72068 45.9447 6.74792C46.0295 8.15876 46.3701 9.66649 46.8571 11.3942C47.3776 13.2407 47.9762 15.0647 48.423 16.9318C48.4359 16.9588 48.4497 16.9882 48.4642 17.0198C48.5378 17.1796 48.6345 17.4052 48.7254 17.6667C48.8763 18.101 49.1374 18.9731 48.9352 19.8285C48.5678 21.3824 47.195 22.2226 46.0399 22.4948C44.8848 22.7671 43.2832 22.6281 42.2662 21.4006C41.7063 20.7248 41.554 19.827 41.4969 19.3706C41.4625 19.0958 41.4492 18.8506 41.4443 18.6746C41.4434 18.6416 41.4428 18.6107 41.4424 18.5821C41.0199 16.8211 40.4482 15.0992 39.9571 13.357C39.4248 11.4685 38.9047 9.3294 38.7809 7.08607C38.7731 7.05666 38.7647 7.02459 38.756 6.99012C38.713 6.81943 38.6592 6.57986 38.6177 6.30604C38.5489 5.85131 38.4518 4.94576 38.8071 4.1423Z" fill="black"/>
<path fill-rule="evenodd" clip-rule="evenodd" d="M5.11791 33.2795C5.29915 34.27 6.57578 34.8081 6.57578 34.8081C8.07419 36.3792 9.94226 37.3844 11.7515 38.2069C12.4095 38.5061 13.0434 38.7753 13.6576 39.0361C14.8091 39.5252 15.8911 39.9846 16.9318 40.5567C16.9318 40.5567 17.8893 41.4625 18.7447 41.5533C19.4398 41.6271 19.895 41.7472 20.6938 41.2292C22.4658 40.08 22.9759 37.0329 22.2712 35.581C21.8803 34.7755 20.4583 34.5844 20.4583 34.5844C19.313 33.9548 18.0234 33.4059 16.7981 32.8844C16.213 32.6354 15.6425 32.3926 15.1095 32.1502C13.3775 31.3628 11.8631 30.5144 10.7088 29.304C10.7088 29.304 10.1036 27.8729 9.25089 27.7754C8.23406 27.6593 7.21877 28.109 6.23555 29.3674C5.20692 30.6839 4.89182 32.0439 5.11791 33.2795Z" fill="black"/>
<path d="M0.969175 49.8552C-0.155629 48.7265 -0.14838 47.1116 0.226159 45.9806C0.600698 44.8497 1.55793 43.5523 3.13162 43.3255C3.99792 43.2007 4.83891 43.5409 5.25575 43.7312C5.50675 43.8458 5.72159 43.963 5.87337 44.051C5.90066 44.0669 5.9262 44.0819 5.94985 44.096C7.29124 44.5225 8.81443 44.7437 10.5945 44.9065C13.2981 45.1539 16.1258 45.0181 18.7398 45.7752C19.6036 46.0254 20.077 46.7528 20.3011 47.1899C20.5641 47.703 20.7308 48.2972 20.8028 48.8636C20.8732 49.4176 20.87 50.0796 20.6714 50.6955C20.4683 51.3257 19.9661 52.1292 18.9458 52.3611C18.86 52.3806 18.775 52.4003 18.6906 52.4199C18.2305 52.5264 17.7891 52.6286 17.346 52.6725C16.7682 52.7298 16.2155 52.692 15.487 52.5825C13.6556 52.3073 11.7881 52.2497 9.94416 52.081C7.99841 51.903 5.82422 51.6237 3.69525 50.9353C3.6651 50.9321 3.6323 50.9285 3.59716 50.9243C3.42312 50.9034 3.1812 50.868 2.91189 50.8087C2.46464 50.7102 1.58837 50.4765 0.969175 49.8552Z" fill="black"/>
<path d="M24.634 11.8585C24.6331 10.2614 25.7749 9.1246 26.8358 8.59095C27.8967 8.0573 29.4868 7.81986 30.7592 8.77737C31.4596 9.30447 31.8148 10.1424 31.9756 10.5731C32.0724 10.8324 32.1418 11.0679 32.1872 11.238C32.1954 11.2686 32.2028 11.2974 32.2096 11.3242C33.8043 14.4096 36.5009 16.8754 38.5949 19.6164C38.6176 19.6359 38.6421 19.6571 38.6682 19.68C38.8001 19.796 38.9798 19.9626 39.1686 20.1644C39.4822 20.4995 40.0737 21.1898 40.2351 22.0539C40.5283 23.6236 39.614 24.9518 38.6688 25.6723C37.7237 26.3928 36.2041 26.9199 34.7782 26.2137C33.6231 25.6416 33.0025 24.1243 32.1863 23.1218C31.2764 22.0042 30.3333 20.9168 29.4136 19.8077C28.163 18.2997 26.8222 16.5578 25.8013 14.5587C25.7823 14.535 25.7616 14.5091 25.7398 14.4812C25.6314 14.3428 25.4853 14.1459 25.3366 13.9127C25.0896 13.5254 24.6345 12.7376 24.634 11.8585Z" fill="black"/>
<path d="M13.1546 20.6485C12.7892 19.0942 13.6412 17.7247 14.552 16.9609C15.4628 16.1972 16.9564 15.5998 18.4134 16.2387C19.2155 16.5905 19.7525 17.3243 20.0073 17.7065C20.1607 17.9366 20.282 18.1498 20.365 18.3049C20.3799 18.3328 20.3937 18.3591 20.4064 18.3836C21.3238 19.4553 22.5032 20.4485 23.9317 21.5278C24.3862 21.8713 24.8736 22.2284 25.385 22.6032L25.4039 22.617C26.6721 23.5464 27.894 24.5182 29.1976 25.3855C29.5794 25.6395 30.3127 26.1751 30.667 26.979C31.3106 28.4394 30.7238 29.9428 29.9682 30.8618C29.2127 31.7808 27.8539 32.6438 26.3048 32.2849C25.452 32.0873 24.7899 31.4651 24.4695 31.1365C23.0284 29.6586 21.2623 28.5253 19.6211 27.2852C18.0596 26.1054 16.357 24.7186 14.9071 23.008C14.8831 22.9893 14.8571 22.9689 14.8295 22.9467C14.6924 22.837 14.5052 22.679 14.3073 22.4862C13.9785 22.1661 13.3557 21.5042 13.1546 20.6485Z" fill="black"/>
<path d="M58.1557 109.563C57.2368 110.866 55.6508 111.13 54.4781 110.949C53.3055 110.768 51.8717 110.037 51.3852 108.517C51.1174 107.68 51.3102 106.79 51.4271 106.345C51.4974 106.077 51.5764 105.845 51.6374 105.68C51.6483 105.65 51.6588 105.622 51.6687 105.596C51.8622 104.196 51.8238 102.651 51.685 100.861C51.5168 98.6897 51.38 96.4956 51.083 94.3414C51.0201 93.8858 50.9351 92.979 51.3011 92.1804C51.9658 90.7296 53.4765 90.1775 54.6624 90.1391C55.8482 90.1007 57.3912 90.5538 58.1477 91.9585C58.5641 92.7318 58.5374 93.6422 58.504 94.1009C58.3534 96.1643 58.6753 98.2446 58.8347 100.301C58.9864 102.258 59.0769 104.458 58.7585 106.682C58.7604 106.713 58.7623 106.746 58.7641 106.781C58.7728 106.957 58.7786 107.203 58.7656 107.479C58.744 107.939 58.6616 108.846 58.1557 109.563Z" fill="black"/>
<path d="M71.1929 106.858C70.5474 108.317 69.0442 108.89 67.8589 108.944C66.6737 108.998 65.1249 108.566 64.3498 107.171C63.9232 106.404 63.9378 105.493 63.9651 105.034C63.9816 104.757 64.0135 104.514 64.0409 104.34C64.0458 104.309 64.0506 104.279 64.0553 104.252C63.9705 102.841 63.6299 101.334 63.1429 99.6058C62.6224 97.7593 62.0238 95.9353 61.577 94.0682C61.5641 94.0412 61.5503 94.0118 61.5358 93.9802C61.4622 93.8204 61.3655 93.5948 61.2746 93.3333C61.1237 92.899 60.8626 92.0269 61.0648 91.1715C61.4322 89.6176 62.805 88.7774 63.9601 88.5052C65.1152 88.2329 66.7168 88.3719 67.7338 89.5994C68.2937 90.2752 68.446 91.173 68.5031 91.6294C68.5375 91.9042 68.5508 92.1494 68.5557 92.3254C68.5566 92.3584 68.5572 92.3893 68.5576 92.4179C68.9801 94.1788 69.5518 95.9008 70.0429 97.643C70.5752 99.5315 71.0953 101.671 71.219 103.914C71.2269 103.943 71.2353 103.975 71.2439 104.01C71.287 104.181 71.3408 104.42 71.3823 104.694C71.4511 105.149 71.5482 106.054 71.1929 106.858Z" fill="black"/>
<path fill-rule="evenodd" clip-rule="evenodd" d="M104.882 77.7205C104.701 76.73 103.424 76.1919 103.424 76.1919C101.926 74.6208 100.058 73.6157 98.2485 72.7931C97.5905 72.4939 96.9566 72.2247 96.3424 71.9639C95.1909 71.4749 94.1089 71.0154 93.0682 70.4433C93.0682 70.4433 92.1107 69.5375 91.2553 69.4468C90.5602 69.373 90.105 69.2528 89.3062 69.7709C87.5342 70.9201 87.0241 73.9672 87.7288 75.4191C88.1197 76.2245 89.5417 76.4156 89.5417 76.4156C90.687 77.0452 91.9766 77.5941 93.2019 78.1157C93.787 78.3647 94.3575 78.6075 94.8905 78.8498C96.6225 79.6373 98.1369 80.4857 99.2912 81.696C99.2912 81.696 99.8964 83.1272 100.749 83.2246C101.766 83.3408 102.781 82.8911 103.764 81.6327C104.793 80.3161 105.108 78.9562 104.882 77.7205Z" fill="black"/>
<path d="M109.031 61.1448C110.156 62.2735 110.148 63.8884 109.774 65.0194C109.399 66.1503 108.442 67.4477 106.868 67.6745C106.002 67.7993 105.161 67.4591 104.744 67.2688C104.493 67.1542 104.278 67.037 104.127 66.949C104.099 66.9331 104.074 66.9181 104.05 66.904C102.709 66.4775 101.186 66.2563 99.4055 66.0935C96.7019 65.8461 93.8742 65.9819 91.2602 65.2248C90.3964 64.9746 89.923 64.2472 89.6989 63.8101C89.4359 63.297 89.2692 62.7028 89.1972 62.1364C89.1268 61.5824 89.13 60.9204 89.3286 60.3045C89.5317 59.6743 90.0339 58.8708 91.0542 58.6389C91.14 58.6194 91.225 58.5997 91.3094 58.5801C91.7695 58.4736 92.2109 58.3715 92.654 58.3275C93.2318 58.2702 93.7845 58.308 94.513 58.4175C96.3445 58.6927 98.2119 58.7503 100.056 58.919C102.002 59.097 104.176 59.3763 106.305 60.0647C106.335 60.0679 106.368 60.0715 106.403 60.0757C106.577 60.0966 106.819 60.132 107.088 60.1913C107.535 60.2898 108.412 60.5235 109.031 61.1448Z" fill="black"/>
<path d="M85.366 99.1416C85.3669 100.739 84.2251 101.875 83.1642 102.409C82.1033 102.943 80.5132 103.18 79.2408 102.223C78.5404 101.696 78.1852 100.858 78.0244 100.427C77.9276 100.168 77.8581 99.9322 77.8128 99.7621C77.8046 99.7315 77.7972 99.7027 77.7904 99.6759C76.1957 96.5905 73.4991 94.1247 71.4051 91.3836C71.3824 91.3642 71.3579 91.343 71.3318 91.3201C71.1999 91.2041 71.0202 91.0375 70.8314 90.8357C70.5178 90.5006 69.9263 89.8103 69.7649 88.9462C69.4717 87.3765 70.386 86.0482 71.3312 85.3278C72.2763 84.6073 73.7959 84.0802 75.2218 84.7864C76.3769 85.3585 76.9975 86.8758 77.8137 87.8783C78.7236 88.9959 79.6667 90.0833 80.5864 91.1924C81.837 92.7004 83.1778 94.4423 84.1987 96.4414C84.2177 96.4651 84.2383 96.4909 84.2602 96.5189C84.3686 96.6573 84.5147 96.8542 84.6634 97.0874C84.9104 97.4747 85.3655 98.2625 85.366 99.1416Z" fill="black"/>
<path d="M96.8454 90.3515C97.2108 91.9058 96.3588 93.2753 95.448 94.0391C94.5372 94.8029 93.0436 95.4003 91.5866 94.7613C90.7845 94.4096 90.2475 93.6758 89.9927 93.2936C89.8393 93.0635 89.718 92.8502 89.635 92.6951C89.6201 92.6673 89.6063 92.6409 89.5936 92.6164C88.6762 91.5448 87.4967 90.5516 86.0683 89.4722C85.6137 89.1288 85.1264 88.7716 84.615 88.3968L84.5961 88.383C83.3279 87.4537 82.106 86.4818 80.8023 85.6145C80.4206 85.3606 79.6873 84.825 79.333 84.021C78.6894 82.5607 79.2762 81.0572 80.0318 80.1382C80.7873 79.2192 82.1461 78.3562 83.6952 78.7152C84.548 78.9128 85.2101 79.5349 85.5305 79.8635C86.9716 81.3415 88.7377 82.4747 90.3789 83.7148C91.9404 84.8947 93.643 86.2814 95.0929 87.9921C95.1169 88.0107 95.1429 88.0312 95.1705 88.0533C95.3076 88.163 95.4948 88.321 95.6927 88.5138C96.0215 88.834 96.6443 89.4959 96.8454 90.3515Z" fill="black"/>
<path d="M38.8071 106.858C39.4526 108.317 40.9558 108.89 42.141 108.944C43.3263 108.998 44.8751 108.566 45.6502 107.171C46.0768 106.404 46.0622 105.493 46.0349 105.034C46.0184 104.757 45.9865 104.514 45.9591 104.34C45.9542 104.309 45.9494 104.279 45.9447 104.252C46.0295 102.841 46.3701 101.334 46.8571 99.6058C47.3776 97.7593 47.9762 95.9353 48.423 94.0682C48.4359 94.0412 48.4497 94.0118 48.4642 93.9802C48.5378 93.8204 48.6345 93.5948 48.7254 93.3333C48.8763 92.899 49.1374 92.0269 48.9352 91.1715C48.5678 89.6176 47.195 88.7774 46.0399 88.5052C44.8848 88.2329 43.2832 88.3719 42.2662 89.5994C41.7063 90.2752 41.554 91.173 41.4969 91.6294C41.4625 91.9042 41.4492 92.1494 41.4443 92.3254C41.4434 92.3584 41.4428 92.3893 41.4424 92.4179C41.0199 94.1788 40.4482 95.9008 39.9571 97.643C39.4248 99.5315 38.9047 101.671 38.7809 103.914C38.7731 103.943 38.7647 103.975 38.756 104.01C38.713 104.181 38.6592 104.42 38.6177 104.694C38.5489 105.149 38.4518 106.054 38.8071 106.858Z" fill="black"/>
<path fill-rule="evenodd" clip-rule="evenodd" d="M5.11791 77.7205C5.29915 76.73 6.57578 76.1919 6.57578 76.1919C8.07419 74.6208 9.94226 73.6157 11.7515 72.7931C12.4095 72.4939 13.0434 72.2247 13.6576 71.9639C14.8091 71.4749 15.8911 71.0154 16.9318 70.4433C16.9318 70.4433 17.8893 69.5375 18.7447 69.4468C19.4398 69.373 19.895 69.2528 20.6938 69.7709C22.4658 70.9201 22.9759 73.9672 22.2712 75.4191C21.8803 76.2245 20.4583 76.4156 20.4583 76.4156C19.313 77.0452 18.0234 77.5941 16.7981 78.1157C16.213 78.3647 15.6425 78.6075 15.1095 78.8498C13.3775 79.6373 11.8631 80.4857 10.7088 81.696C10.7088 81.696 10.1036 83.1272 9.25089 83.2246C8.23406 83.3408 7.21877 82.8911 6.23555 81.6327C5.20692 80.3161 4.89182 78.9562 5.11791 77.7205Z" fill="black"/>
<path d="M0.969175 61.1448C-0.155629 62.2735 -0.14838 63.8884 0.226159 65.0194C0.600698 66.1503 1.55793 67.4477 3.13162 67.6745C3.99792 67.7993 4.83891 67.4591 5.25575 67.2688C5.50675 67.1542 5.72159 67.037 5.87337 66.949C5.90066 66.9331 5.9262 66.9181 5.94985 66.904C7.29124 66.4775 8.81443 66.2563 10.5945 66.0935C13.2981 65.8461 16.1258 65.9819 18.7398 65.2248C19.6036 64.9746 20.077 64.2472 20.3011 63.8101C20.5641 63.297 20.7308 62.7028 20.8028 62.1364C20.8732 61.5824 20.87 60.9204 20.6714 60.3045C20.4683 59.6743 19.9661 58.8708 18.9458 58.6389C18.86 58.6194 18.775 58.5997 18.6906 58.5801C18.2305 58.4736 17.7891 58.3715 17.346 58.3275C16.7682 58.2702 16.2155 58.308 15.487 58.4175C13.6556 58.6927 11.7881 58.7503 9.94416 58.919C7.99841 59.097 5.82422 59.3763 3.69525 60.0647C3.6651 60.0679 3.6323 60.0715 3.59716 60.0757C3.42312 60.0966 3.1812 60.132 2.91189 60.1913C2.46464 60.2898 1.58837 60.5235 0.969175 61.1448Z" fill="black"/>
<path d="M24.634 99.1416C24.6331 100.739 25.7749 101.875 26.8358 102.409C27.8967 102.943 29.4868 103.18 30.7592 102.223C31.4596 101.696 31.8148 100.858 31.9756 100.427C32.0724 100.168 32.1418 99.9322 32.1872 99.7621C32.1954 99.7315 32.2028 99.7027 32.2096 99.6759C33.8043 96.5905 36.5009 94.1247 38.5949 91.3836C38.6176 91.3642 38.6421 91.343 38.6682 91.3201C38.8001 91.2041 38.9798 91.0375 39.1686 90.8357C39.4822 90.5006 40.0737 89.8103 40.2351 88.9462C40.5283 87.3765 39.614 86.0482 38.6688 85.3278C37.7237 84.6073 36.2041 84.0802 34.7782 84.7864C33.6231 85.3585 33.0025 86.8758 32.1863 87.8783C31.2764 88.9959 30.3333 90.0833 29.4136 91.1924C28.163 92.7004 26.8222 94.4423 25.8013 96.4414C25.7823 96.4651 25.7616 96.4909 25.7398 96.5189C25.6314 96.6573 25.4853 96.8542 25.3366 97.0874C25.0896 97.4747 24.6345 98.2625 24.634 99.1416Z" fill="black"/>
<path d="M13.1546 90.3515C12.7892 91.9058 13.6412 93.2753 14.552 94.0391C15.4628 94.8029 16.9564 95.4003 18.4134 94.7613C19.2155 94.4096 19.7525 93.6758 20.0073 93.2936C20.1607 93.0635 20.282 92.8502 20.365 92.6951C20.3799 92.6673 20.3937 92.6409 20.4064 92.6164C21.3238 91.5448 22.5032 90.5516 23.9317 89.4722C24.3862 89.1288 24.8736 88.7716 25.385 88.3968L25.4039 88.383C26.6721 87.4537 27.894 86.4818 29.1976 85.6145C29.5794 85.3606 30.3127 84.825 30.667 84.021C31.3106 82.5607 30.7238 81.0572 29.9682 80.1382C29.2127 79.2192 27.8539 78.3562 26.3048 78.7152C25.452 78.9128 24.7899 79.5349 24.4695 79.8635C23.0284 81.3415 21.2623 82.4747 19.6211 83.7148C18.0596 84.8947 16.357 86.2814 14.9071 87.9921C14.8831 88.0107 14.8571 88.0312 14.8295 88.0533C14.6924 88.163 14.5052 88.321 14.3073 88.5138C13.9785 88.834 13.3557 89.4959 13.1546 90.3515Z" fill="black"/>
</svg>
