<svg width="60" height="60" viewBox="0 0 60 60" fill="none" xmlns="http://www.w3.org/2000/svg">
<rect width="60" height="60" rx="30" fill="#384897"/>
<path d="M24.0682 20.6344C23.6842 17.9258 21.3618 15.8359 18.5621 15.8359C15.4949 15.8359 13 18.3436 13 21.4266C13 24.5095 15.4949 27.0172 18.5621 27.0172C19.2046 27.0172 19.8227 26.9069 20.3975 26.7041C21.096 27.6979 22.2469 28.3479 23.547 28.3479C25.6731 28.3479 27.4024 26.6098 27.4024 24.4728C27.4024 22.5141 25.9487 20.8911 24.0688 20.6338L24.0682 20.6344ZM20.9101 24.4734C20.9101 23.2444 21.747 22.2083 22.8777 21.91C22.7339 23.2186 22.0122 24.3551 20.9747 25.0542C20.9327 24.8667 20.9101 24.6725 20.9101 24.4728V24.4734ZM18.5621 25.7925C16.1672 25.7925 14.2191 23.8344 14.2191 21.4272C14.2191 19.02 16.1672 17.0619 18.5621 17.0619C20.698 17.0619 22.4779 18.6205 22.8375 20.665C21.0491 21.0008 19.691 22.5802 19.691 24.4734C19.691 24.863 19.7489 25.2392 19.8562 25.5946C19.4472 25.7232 19.0126 25.7925 18.5621 25.7925ZM23.5464 27.1232C22.7302 27.1232 22 26.7488 21.516 26.1619C22.9606 25.2484 23.9597 23.6855 24.1054 21.8842C25.2916 22.1428 26.1827 23.2051 26.1827 24.4734C26.1827 25.9346 25.0002 27.1232 23.5464 27.1232Z" fill="white"/>
<path d="M28.768 21.1602C26.5297 21.1602 24.709 19.3301 24.709 17.0798C24.709 14.8294 26.5297 13 28.768 13C31.0062 13 32.8276 14.83 32.8276 17.0804C32.8276 19.3307 31.0068 21.1608 28.768 21.1608V21.1602ZM28.768 14.2253C27.202 14.2253 25.9281 15.5058 25.9281 17.0804C25.9281 18.655 27.202 19.9354 28.768 19.9354C30.3339 19.9354 31.6085 18.655 31.6085 17.0804C31.6085 15.5058 30.3345 14.2253 28.768 14.2253Z" fill="white"/>
<path d="M31.7734 23.2329C33.7819 23.7904 34.2317 24.242 34.7858 26.2607C35.3405 24.242 35.7898 23.7898 37.7982 23.2329C35.7898 22.6754 35.3399 22.2238 34.7858 20.2051C34.2311 22.2238 33.7819 22.676 31.7734 23.2329Z" fill="white"/>
<path d="M46.1459 31.3378C45.5217 32.1852 44.547 33.1697 43.2481 34.2658C43.2072 34.3001 43.1664 34.3344 43.1249 34.3693C42.7501 34.683 42.3539 35.001 41.9388 35.3226C41.6998 35.5083 41.4542 35.6945 41.2024 35.8826C39.3049 37.2967 37.0642 38.7634 34.6388 40.1768C34.0616 40.5132 33.474 40.8465 32.8784 41.1755C32.6121 41.3225 32.3469 41.4671 32.0817 41.6099C30.6548 42.3782 29.2443 43.0852 27.8826 43.7199C25.6217 44.7713 23.4944 45.6167 21.6463 46.192C21.3799 46.2754 21.1166 46.3538 20.8654 46.4242C19.6354 46.7692 18.5943 46.9616 17.7701 46.9965C17.6811 47.0001 17.5952 47.002 17.5111 47.002C16.6242 47.002 15.975 46.7912 15.5752 46.3722C15.4502 46.2435 15.3502 46.0928 15.2728 45.9243C15.2064 45.7791 15.1619 45.6265 15.1399 45.4691C15.043 44.8135 15.3198 44.0544 15.9744 43.1642C16.32 42.6955 16.7729 42.1846 17.3282 41.6356L19.7548 41.6313C18.5967 42.6159 17.7378 43.4853 17.2002 44.2162C16.768 44.8013 16.6845 45.1137 16.6687 45.232C16.7619 45.2804 17.0259 45.3729 17.6519 45.3472C18.5223 45.3092 19.7049 45.061 21.1647 44.6058C22.8264 44.0881 24.7257 43.3437 26.7488 42.4204C27.3078 42.1656 27.8771 41.8978 28.4531 41.6166C29.3699 41.1694 30.3055 40.6903 31.2491 40.183C31.5417 40.0261 31.8361 39.8662 32.1299 39.7039C34.84 38.2077 37.3678 36.6233 39.5079 35.0886C39.7889 34.887 40.0626 34.6867 40.3302 34.4876C40.7678 34.161 41.1854 33.8375 41.5822 33.5189C41.8181 33.3296 42.046 33.1421 42.2661 32.9559C43.4754 31.937 44.3696 31.0382 44.9225 30.2865C45.3541 29.7002 45.4382 29.3883 45.4534 29.2707C45.3602 29.2211 45.0968 29.1285 44.4708 29.1543C43.6004 29.1916 42.4179 29.4416 40.958 29.8956C39.72 30.281 38.3491 30.7938 36.8935 31.4107C36.1316 31.1001 35.3959 30.8115 34.7296 30.5561C36.807 29.6095 38.7612 28.8436 40.4752 28.3094C42.0534 27.8193 43.3566 27.5478 44.3508 27.5062C45.3717 27.4602 46.1087 27.6704 46.547 28.1305C46.6719 28.2604 46.7713 28.4099 46.8481 28.5784C46.9145 28.7236 46.9584 28.8755 46.981 29.0336C47.0779 29.6891 46.8017 30.4482 46.1471 31.3384L46.1459 31.3378Z" fill="#F6F1ED"/>
<path d="M30.1396 37.9091C30.0097 37.9091 29.8781 37.8736 29.7604 37.7982C29.4288 37.5875 29.3301 37.1457 29.5398 36.8124L32.1127 32.7235C32.3224 32.3896 32.7612 32.2903 33.0934 32.5017C33.425 32.7125 33.5238 33.1542 33.3141 33.4875L30.7412 37.5764C30.6059 37.7915 30.3755 37.9091 30.1396 37.9091Z" fill="white"/>
<path d="M33.3223 37.8743C33.1961 37.8743 33.0681 37.8406 32.9529 37.7696C32.6176 37.5637 32.5122 37.1244 32.7164 36.7875L34.631 33.6353C34.8358 33.2983 35.2728 33.1923 35.6081 33.3976C35.9433 33.6034 36.0488 34.0427 35.8446 34.3797L33.93 37.5319C33.7959 37.7524 33.5624 37.8743 33.3223 37.8743Z" fill="white"/>
<path d="M21.5434 40.1979L31.2474 40.1814C30.3032 40.6881 29.3682 41.1678 28.4514 41.615L19.7531 41.6304L17.3265 41.6347H17.1912C16.7993 41.6347 16.4811 41.3154 16.4805 40.9215C16.4805 40.5269 16.7974 40.2065 17.19 40.2059L18.9077 40.2028L21.5434 40.1986V40.1979Z" fill="white"/>
<path d="M40.3278 34.4868C37.508 33.1175 33.7825 31.6973 31.7057 30.9584L27.2755 37.6525L26.0918 36.8609L30.828 29.7049C31.0066 29.4347 31.3449 29.3195 31.6509 29.4255C31.796 29.4758 33.0431 29.9108 34.7273 30.5553C35.3935 30.8108 36.1286 31.0993 36.8912 31.41C38.4595 32.0496 40.1413 32.783 41.5798 33.5182C41.183 33.8368 40.7655 34.1603 40.3278 34.4868Z" fill="white"/>
<path d="M45.7788 39.5741C45.2565 40.8571 43.9667 41.5917 42.2404 41.5917L32.0811 41.6088C32.3462 41.4661 32.612 41.3215 32.8777 41.1744C33.4739 40.8454 34.0615 40.5121 34.6381 40.1758L42.2386 40.1629C43.3602 40.1629 44.1702 39.7512 44.4628 39.0325C44.7688 38.2802 44.4659 37.2981 43.6893 36.531C43.3217 36.1671 42.7073 35.756 41.9381 35.3222C42.3538 35.0006 42.7494 34.6826 43.1243 34.3689C43.7814 34.7665 44.322 35.1519 44.6859 35.5121C45.894 36.7056 46.3128 38.2618 45.7782 39.5741H45.7788Z" fill="white"/>
<path d="M17.3929 38.7384C17.3765 38.7384 17.3594 38.7384 17.3429 38.7365C16.951 38.709 16.656 38.3677 16.6834 37.9744L16.987 33.6152C17.346 29.5532 19.3868 29.3345 20.0061 29.3645C21.2666 29.3988 21.675 30.2229 22.1505 30.7743C22.9032 31.6467 23.0959 32.374 25.0086 32.029C26.4813 31.7637 27.7656 29.6151 28.1265 28.7249C28.2746 28.3597 28.6885 28.1833 29.0524 28.3322C29.4157 28.4804 29.5912 28.8964 29.4437 29.2622C29.3773 29.427 27.765 33.0828 25.0897 33.4559C22.4211 33.8278 21.8908 32.7134 20.9563 31.5499C20.537 31.0273 20.4565 30.8067 19.9731 30.7933C19.3343 30.7681 18.6004 31.5187 18.4048 33.7286L18.1024 38.0742C18.0762 38.451 17.7641 38.739 17.3941 38.739L17.3929 38.7384Z" fill="white"/>
</svg>
