<svg width="40" height="40" viewBox="0 0 40 40" fill="none" xmlns="http://www.w3.org/2000/svg">
<rect width="40" height="40" rx="20" fill="#384897"/>
<g clip-path="url(#clip0_2048_5638)">
<path d="M29.9255 15.5807C31.5124 14.5226 32.194 13.4986 31.9526 12.5288L31.35 10.1081C31.3433 10.0178 31.3299 9.9279 31.3077 9.83847C31.0203 8.68413 29.5422 8.07475 26.9147 8.02721C22.4596 7.89404 14.9508 9.76446 11.0776 11.97C8.94218 13.1534 7.91122 14.3 8.00598 15.3824C7.99704 15.463 8.00116 15.5462 8.02186 15.6294L8.69162 18.3197C8.69246 18.3232 8.69363 18.3264 8.69452 18.3299V27.8736C8.73832 33.3491 31.9494 33.3488 31.993 27.8736V17.7691C31.9929 16.9105 31.2983 16.1774 29.9255 15.5807ZM30.5876 17.7691C30.5876 17.9901 29.9312 18.6225 27.9021 19.1669C25.1361 19.9324 20.5422 20.2065 17.1586 19.843C20.7579 19.3544 25.4328 18.0089 28.34 16.4972C30.197 17.0679 30.5876 17.6413 30.5876 17.7691ZM28.2404 14.9592C24.5805 17.0467 17.3215 18.8532 13.11 18.726C10.7574 18.6834 10.1 18.1602 10.0553 17.9802L9.83964 17.1142C15.476 18.5242 27.2172 15.0728 30.3799 12.0289L30.5889 12.8683C30.6337 13.0482 30.2984 13.8185 28.2404 14.9592ZM11.7588 13.1991C15.4821 11.0987 22.5584 9.32358 26.8892 9.43225C28.9844 9.4702 29.7345 9.88911 29.9053 10.1074C29.908 10.1271 29.9183 10.1771 29.9413 10.2671C29.8843 10.5466 29.4087 11.2638 27.5954 12.2688C23.9353 14.3564 16.6768 16.1626 12.465 16.0356C10.1124 15.993 9.45506 15.4698 9.41028 15.2899C9.3655 15.11 9.70084 14.3396 11.7588 13.1991ZM27.8747 29.6187C23.9593 30.9006 16.7281 30.9006 12.8126 29.6187C10.9386 29.0338 10.0998 28.3208 10.0998 27.8736V19.6845C13.9396 21.5255 23.3886 21.9721 28.2661 20.5242C29.2237 20.2673 29.9977 19.9708 30.5876 19.6363V27.8736C30.5876 28.3208 29.7488 29.0338 27.8747 29.6187Z" fill="white"/>
<path d="M24.8509 22.501C24.5548 22.4113 24.2347 22.5255 24.0627 22.7828L22.8404 24.6103L21.5953 22.7785C21.4218 22.5233 21.1023 22.4112 20.8075 22.5018C20.5127 22.5926 20.3115 22.865 20.3115 23.1734V27.5101C20.3487 28.4423 21.68 28.4416 21.7168 27.5101V25.4572L22.264 26.2622C22.3948 26.4548 22.6124 26.5699 22.8451 26.5699H22.8477C23.0814 26.569 23.2993 26.452 23.4292 26.2579L23.9441 25.4879V27.5101C23.9813 28.4423 25.3126 28.4416 25.3494 27.5101V23.1733C25.3494 22.8639 25.1469 22.5909 24.8509 22.501Z" fill="white"/>
<path d="M16.9132 24.3391C17.1691 24.0681 17.4865 23.8942 17.8098 23.8355C18.1916 23.7661 18.4449 23.4003 18.3754 23.0185C18.3061 22.6367 17.9398 22.3833 17.5585 22.4529C16.7578 22.5984 16.0506 23.0691 15.5671 23.7781C15.0787 24.4942 14.8694 25.4024 14.975 26.3388C15.1558 28.8585 18.7453 28.8015 18.8438 26.2742C18.8438 25.2087 17.9782 24.3416 16.9132 24.3391ZM16.9086 26.8042C16.6164 26.8042 16.3787 26.5664 16.3787 26.2742C16.4078 25.5712 17.4095 25.5714 17.4385 26.2742C17.4385 26.5664 17.2008 26.8042 16.9086 26.8042Z" fill="white"/>
</g>
<defs>
<clipPath id="clip0_2048_5638">
<rect width="24" height="24" fill="white" transform="translate(8 8)"/>
</clipPath>
</defs>
</svg>
