<svg width="104" height="104" viewBox="0 0 104 104" fill="none" xmlns="http://www.w3.org/2000/svg">
<rect width="104" height="104" rx="52" fill="#5EAB99"/>
<path d="M72.1622 58.5215C66.1861 58.5215 61.3242 63.3391 61.3242 69.2608C61.9201 83.508 82.4062 83.5039 83 69.2607C82.9999 63.3391 78.1381 58.5215 72.1622 58.5215ZM72.1622 76.4111C68.1909 76.4111 64.9601 73.2034 64.9601 69.2607C65.3563 59.7745 78.9694 59.7771 79.3641 69.2607C79.364 73.2034 76.1333 76.4111 72.1622 76.4111Z" fill="white"/>
<path d="M49.1739 62.1104C51.2745 62.1104 53.2657 63.0184 54.6371 64.6014C55.2897 65.3548 56.4373 65.4432 57.2001 64.7991C57.9633 64.1551 58.0528 63.0223 57.4003 62.2691C50.8939 54.7449 38.3344 59.3642 38.336 69.261C38.3126 78.7497 50.0862 83.6006 56.8402 76.8518C57.5486 76.1493 57.5458 75.0132 56.8342 74.3141C56.1227 73.615 54.9716 73.6177 54.2633 74.3199C49.7679 78.8087 41.9557 75.5718 41.9717 69.2608C41.9719 65.318 45.2027 62.1104 49.1739 62.1104Z" fill="white"/>
<path d="M33.8186 62.1104C36.2307 62.0155 36.2289 58.6154 33.8186 58.5215H22.8179C21.814 58.5215 21 59.3249 21 60.3159V78.2055C21 79.1965 21.814 80 22.8179 80H33.8186C36.2307 79.9051 36.2289 76.505 33.8186 76.4111H24.6359V71.0935H30.7965C33.2085 70.9987 33.2067 67.5985 30.7965 67.5046H24.6359V62.1103H33.8186V62.1104Z" fill="white"/>
<path d="M41.7313 53.4143H56.8867C67.988 53.4143 77.0194 44.4993 77.0194 33.5416V25.7944C77.0194 24.8034 76.2055 24 75.2015 24H67.3529C58.8081 24 51.4905 29.2823 48.5729 36.712C45.9975 32.7511 41.4962 30.1213 36.3841 30.1213H29.0767C28.0727 30.1213 27.2588 30.9248 27.2588 31.9158V39.1288C27.2588 47.0058 33.7513 53.4143 41.7313 53.4143ZM50.8561 43.8727C50.8561 34.8937 58.2566 27.5889 67.3531 27.5889H73.3837V33.5416C73.3837 42.5205 65.9832 49.8254 56.8868 49.8254H53.427L65.9598 37.4545C66.6698 36.7538 66.6698 35.6176 65.9598 34.9168C65.25 34.216 64.0988 34.216 63.3889 34.9168L50.8566 47.2871C50.8568 46.8688 50.8566 44.1358 50.8561 43.8727ZM30.8947 33.7102H36.3842C42.3439 33.7102 47.1949 38.4838 47.2201 44.3608V47.2871L38.3943 38.5751C36.6211 36.9586 34.1862 39.3642 35.8233 41.1128L44.6498 49.8254H41.7313C35.756 49.8254 30.8947 45.0269 30.8947 39.1288V33.7102Z" fill="white"/>
</svg>
