<svg width="40" height="40" viewBox="0 0 40 40" fill="none" xmlns="http://www.w3.org/2000/svg">
<rect width="40" height="40" rx="20" fill="#384897"/>
<g clip-path="url(#clip0_2048_5624)">
<path d="M31.9574 25.3315C31.8894 24.7735 31.5916 24.2613 31.1402 23.9262C30.4106 23.3845 29.4393 23.3842 28.7189 23.8781C28.4735 23.4285 28.0637 22.9953 27.3992 22.6548C27.0475 19.4669 23.0091 18.216 20.922 20.6732C20.8637 20.6479 20.8045 20.625 20.7448 20.6035V15.5677C24.2198 15.214 26.9404 12.2707 26.9404 8.70391C26.9404 8.31518 26.6253 8.00005 26.2365 8.00005C24.2008 8.00005 22.5718 8.51702 21.3948 9.53667C20.8252 10.0301 20.3728 10.6315 20.0389 11.3377C18.8642 8.97366 16.7376 8.02775 13.8454 8C13.4566 8.00005 13.1415 8.31518 13.1415 8.70391C13.1415 12.2707 15.8621 15.214 19.3371 15.5677V20.1011C17.839 18.1536 14.7086 18.5653 13.7447 20.8134C11.6795 20.5382 9.76345 22.1162 9.60858 24.1657C9.36704 24.4626 9.19168 24.8341 9.10389 25.2283C8.89661 25.3139 8.70602 25.4401 8.54201 25.603C8.21075 25.932 8.02832 26.3703 8.02832 26.8373V30.2603C8.02832 31.2195 8.80877 32 9.768 32H25.5245C26.6618 32 27.723 31.4924 28.4368 30.6072L31.5015 26.8919C31.8592 26.4583 32.0254 25.8896 31.9574 25.3315ZM22.3165 10.6007C23.0896 9.93092 24.153 9.54051 25.484 9.43622C25.157 11.8798 23.2166 13.82 20.773 14.147C20.8949 12.5746 21.4126 11.3836 22.3165 10.6007ZM14.5979 9.43654C15.9261 9.54168 16.9891 9.93453 17.7647 10.6083C18.6684 11.3933 19.1863 12.5817 19.3087 14.147C16.8652 13.82 14.9252 11.8799 14.5979 9.43654ZM10.7726 24.9773C10.9187 24.8448 11.0025 24.6572 11.0036 24.4601C10.9876 22.9422 12.5677 21.8089 13.9994 22.3073C14.1913 22.3706 14.4013 22.3483 14.5758 22.2461C14.7502 22.1439 14.8722 21.9716 14.9108 21.7731C15.0816 20.894 15.8566 20.256 16.7537 20.256C17.5303 20.256 18.2162 20.7232 18.501 21.4462C18.629 21.7711 18.9755 21.9533 19.3159 21.8737C19.7965 21.7598 20.3128 21.8669 20.705 22.1652C21.0298 22.4215 21.5479 22.3128 21.7421 21.9473C22.9067 19.9153 25.9893 20.7189 26.0137 23.0597L26.0134 23.0717C26.0129 23.083 26.0126 23.0942 26.0124 23.1055C26.0068 23.4002 26.1853 23.6673 26.4598 23.7746C27.3242 24.1124 27.5672 24.5723 27.626 24.9856L26.4589 26.2524L26.1219 26.6161C26.2666 25.3657 25.26 24.2405 24.0004 24.2486H21.0693C20.8771 24.2486 20.6833 24.2057 20.5091 24.1247L19.2961 23.5608C18.7135 23.2899 18.0934 23.1254 17.453 23.0719C16.1203 22.9606 14.7644 23.415 13.7328 24.3187L12.8143 25.1233L10.6626 25.1051C10.6966 25.0563 10.7334 25.0128 10.7726 24.9773ZM30.4156 25.9961L27.3484 29.7145L27.3429 29.7212C26.8977 30.2748 26.2349 30.5922 25.5246 30.5922H9.768C9.58496 30.5922 9.43604 30.4433 9.43604 30.2603V26.8372C9.43604 26.717 9.49744 26.638 9.53405 26.6017C9.57005 26.5654 9.65184 26.5039 9.76894 26.5053L13.0705 26.5331C13.243 26.5346 13.4104 26.4725 13.5402 26.3587C14.751 25.2962 15.587 24.3542 17.3358 24.4746C17.8107 24.5143 18.2705 24.6363 18.7027 24.8372L19.9156 25.4011C20.2745 25.568 20.6735 25.6562 21.0694 25.6562H24.0005C24.401 25.6562 24.727 25.9821 24.727 26.3827C24.727 26.7833 24.401 27.1092 24.0005 27.1092H18.2987C17.91 27.1092 17.5949 27.4244 17.5949 27.8131C17.5949 28.2018 17.91 28.5169 18.2987 28.5169H25.9723C26.1682 28.5169 26.3554 28.4352 26.4886 28.2915C27.1566 27.5745 28.7206 25.8753 29.3965 25.1415C29.6325 24.8852 30.0214 24.8486 30.3011 25.0563C30.5978 25.2666 30.6531 25.7209 30.4156 25.9961Z" fill="white"/>
</g>
<defs>
<clipPath id="clip0_2048_5624">
<rect width="24" height="24" fill="white" transform="translate(8 8)"/>
</clipPath>
</defs>
</svg>
