<svg width="40" height="40" viewBox="0 0 40 40" fill="none" xmlns="http://www.w3.org/2000/svg">
<rect width="40" height="40" rx="20" fill="#384897"/>
<g clip-path="url(#clip0_2048_5615)">
<path d="M31.3627 9.91895C30.9519 9.51854 30.4086 9.30658 29.8354 9.32101C28.7027 9.35022 27.7812 10.3103 27.7812 11.4614V16.8006C27.0391 16.5395 26.179 16.705 25.5866 17.2975L20.3247 22.5595C20.2067 22.6774 20.0987 22.8026 20 22.9336C19.9013 22.8026 19.7932 22.6774 19.6753 22.5594L14.4134 17.2975C13.821 16.705 12.9609 16.5395 12.2188 16.8006V11.4297C12.2188 10.8559 11.9924 10.3194 11.5815 9.91895C11.1706 9.51854 10.6277 9.30648 10.0542 9.32101C8.92152 9.35022 8 10.3103 8 11.4614V19.3467C8 20.066 8.20344 20.7674 8.58828 21.375L12.464 27.4941C12.8199 28.0559 13.008 28.7044 13.008 29.3694V31.2965C13.008 31.6848 13.3228 31.9997 13.7111 31.9997H26.289C26.6773 31.9997 26.9921 31.6848 26.9921 31.2965V29.3694C26.9921 28.7043 27.1802 28.0559 27.536 27.4942L31.4118 21.375C31.7966 20.7674 32 20.066 32 19.3467V11.4297C32 10.856 31.7737 10.3195 31.3627 9.91895ZM13.652 26.7417L9.77628 20.6225C9.53417 20.2403 9.40625 19.7991 9.40625 19.3467V11.4614C9.40625 11.0661 9.71314 10.7365 10.0904 10.7268C10.2819 10.7222 10.4631 10.7927 10.6001 10.9261C10.737 11.0596 10.8125 11.2384 10.8125 11.4297V18.8125C10.8125 18.832 10.8139 18.8512 10.8154 18.8703C10.835 19.3831 11.0397 19.89 11.4303 20.2806L13.995 22.8453C14.2695 23.1199 14.7148 23.1199 14.9893 22.8453C15.2639 22.5707 15.2639 22.1255 14.9893 21.8509L12.4247 19.2863C12.1505 19.0121 12.1505 18.566 12.4247 18.2919C12.6989 18.0178 13.1449 18.0178 13.4191 18.2919L18.6809 23.5537C19.0781 23.951 19.2969 24.4813 19.2969 25.0469V30.5934H14.4142V29.3694C14.4142 28.4375 14.1507 27.5289 13.652 26.7417ZM30.5938 19.3467C30.5938 19.7991 30.4658 20.2403 30.2237 20.6225L26.348 26.7417C25.8493 27.5289 25.5858 28.4375 25.5858 29.3694V30.5934H20.7031V25.0469C20.7031 24.4813 20.9219 23.951 21.3191 23.5538L26.581 18.2919C26.8552 18.0177 27.3012 18.0177 27.5753 18.2919C27.8481 18.5537 27.8481 19.0245 27.5751 19.2864L25.0107 21.8526C24.7362 22.1273 24.7363 22.5724 25.011 22.8469C25.2856 23.1214 25.7307 23.1213 26.0054 22.8466L28.5697 20.2806C28.9574 19.8929 29.175 19.3808 29.1864 18.8343C29.1867 18.827 29.1875 18.8199 29.1875 18.8125V11.4614C29.1875 11.0661 29.4944 10.7365 29.8716 10.7268C30.0622 10.7216 30.2443 10.7927 30.3813 10.9261C30.5183 11.0596 30.5938 11.2385 30.5938 11.4297V19.3467Z" fill="white"/>
<path d="M15.1003 14.1983C15.1304 14.2309 15.2339 14.3329 17.2039 16.2539C18.2314 17.2559 19.3952 18.3907 19.4889 18.4852C19.6213 18.6229 19.8043 18.701 19.9957 18.701C20.1899 18.7011 20.3754 18.6208 20.5082 18.4794C20.6084 18.3763 21.6843 17.3289 22.6341 16.4044C24.297 14.7856 24.8254 14.2701 24.8916 14.1984C24.9067 14.1819 24.921 14.1648 24.9344 14.1473C27.2072 11.2622 25.1373 8.02314 22.2036 8.00921C21.4074 8.0215 20.6521 8.29487 19.9886 8.80609C18.28 7.51309 16.4001 7.93267 15.2876 8.96139C13.7868 10.3324 13.7123 12.6223 15.0797 14.1749C15.0864 14.1828 15.0932 14.1906 15.1003 14.1983ZM16.2424 9.99386C16.9583 9.33165 18.2418 8.9994 19.5022 10.2422C19.6358 10.374 19.8173 10.4467 20.0042 10.4447C20.1919 10.4424 20.3709 10.3652 20.5013 10.2303C21.2818 9.42315 22.631 9.00367 23.7492 9.98968C24.4798 10.6341 24.9398 11.8745 23.8453 13.2576C23.6686 13.4349 22.5553 14.5187 21.6532 15.3968C20.8571 16.1717 20.3308 16.6843 19.995 17.0123C19.5162 16.5436 16.499 13.6041 16.1373 13.2475C15.4219 12.3815 15.1519 11.0023 16.2424 9.99386Z" fill="white"/>
</g>
<defs>
<clipPath id="clip0_2048_5615">
<rect width="24" height="24" fill="white" transform="translate(8 8)"/>
</clipPath>
</defs>
</svg>
