<svg width="60" height="60" viewBox="0 0 60 60" fill="none" xmlns="http://www.w3.org/2000/svg">
<rect width="60" height="60" rx="30" fill="#E84D27"/>
<path d="M13.5881 30.3214C13.5016 30.3214 13.4152 30.302 13.3346 30.2621C13.1306 30.1617 13 29.9493 13 29.7165V25.2626C13 25.08 13.0806 24.9064 13.2188 24.792L20.3255 18.8955L21.5916 14.204C21.6551 13.9687 21.8504 13.7957 22.0862 13.7654L28.0568 13.0045C28.3173 12.9718 28.5678 13.12 28.6707 13.3686C28.7736 13.6172 28.7031 13.9058 28.4984 14.0758L24.9771 16.9974L25.968 18.261L29.4893 15.34C29.6939 15.1706 29.9827 15.1609 30.1973 15.3164C30.412 15.4718 30.5002 15.7555 30.4137 16.0102L28.4273 21.8523C28.349 22.0827 28.1432 22.2424 27.9056 22.2563L23.1794 22.5358L13.9574 30.1871C13.8509 30.2754 13.7198 30.3214 13.5881 30.3214ZM14.1761 25.5518V28.4516L22.5878 21.4724C22.6813 21.395 22.7954 21.3484 22.9153 21.3399L22.9318 21.3387C22.9318 21.3387 22.9371 21.3387 22.94 21.3387L27.447 21.0719L28.6231 17.6132L26.2491 19.5827C25.9962 19.7926 25.6263 19.7515 25.4222 19.492L23.6928 17.2871C23.5945 17.1625 23.5493 17.0022 23.5657 16.8431C23.5822 16.684 23.6598 16.5377 23.781 16.4366L26.1544 14.4671L22.6201 14.9178L21.4122 19.3915C21.4111 19.3952 21.4105 19.3982 21.4093 19.4018L21.4046 19.4182C21.3705 19.5355 21.3029 19.6402 21.21 19.717L14.1761 25.5518Z" fill="white"/>
<path d="M32.3105 23.5343C34.2482 24.0848 34.6822 24.5306 35.2168 26.5237C35.7519 24.5306 36.1853 24.0841 38.123 23.5343C36.1853 22.9838 35.7513 22.538 35.2168 20.5449C34.6816 22.538 34.2482 22.9845 32.3105 23.5343Z" fill="white"/>
<path d="M46.1763 31.5352C45.5741 32.3718 44.6338 33.3438 43.3807 34.426C43.3413 34.4599 43.3019 34.4937 43.2619 34.5282C42.9002 34.8379 42.518 35.1519 42.1175 35.4694C41.887 35.6527 41.65 35.8366 41.4071 36.0223C39.5765 37.4184 37.4148 38.8665 35.0749 40.262C34.518 40.5941 33.9511 40.9231 33.3765 41.248C33.1195 41.3931 32.8637 41.5359 32.6079 41.6768C31.2313 42.4354 29.8705 43.1334 28.5568 43.7601C26.3756 44.7981 24.3233 45.6328 22.5403 46.2008C22.2833 46.2831 22.0293 46.3605 21.787 46.4301C20.6003 46.7706 19.5959 46.9606 18.8008 46.9951C18.7149 46.9987 18.632 47.0005 18.5509 47.0005C17.6952 47.0005 17.0689 46.7924 16.6832 46.3787C16.5626 46.2516 16.4662 46.1028 16.3915 45.9365C16.3274 45.7931 16.2845 45.6425 16.2633 45.4871C16.1698 44.8398 16.4368 44.0904 17.0684 43.2114C17.4018 42.7487 17.8387 42.2442 18.3744 41.7022L20.7155 41.698C19.5982 42.6701 18.7696 43.5284 18.251 44.25C17.834 44.8277 17.7534 45.1362 17.7382 45.253C17.8281 45.3007 18.0828 45.3921 18.6867 45.3667C19.5265 45.3292 20.6673 45.0842 22.0757 44.6348C23.6788 44.1236 25.5112 43.3887 27.463 42.4771C28.0022 42.2255 28.5515 41.9611 29.1072 41.6835C29.9916 41.2419 30.8943 40.7689 31.8046 40.268C32.0869 40.1132 32.3709 39.9553 32.6544 39.795C35.2689 38.3179 37.7076 36.7536 39.7723 35.2384C40.0434 35.0393 40.3074 34.8415 40.5656 34.645C40.9878 34.3225 41.3907 34.0032 41.7735 33.6886C42.0011 33.5017 42.221 33.3166 42.4333 33.1327C43.6 32.1268 44.4627 31.2394 44.9961 30.4972C45.4124 29.9183 45.4936 29.6104 45.5083 29.4943C45.4183 29.4453 45.1643 29.354 44.5603 29.3794C43.7206 29.4163 42.5797 29.6631 41.1713 30.1113C39.9769 30.4918 38.6544 30.9981 37.2501 31.6072C36.515 31.3005 35.8052 31.0156 35.1625 30.7634C37.1666 29.8288 39.0519 29.0727 40.7056 28.5452C42.2281 28.0613 43.4853 27.7933 44.4445 27.7522C45.4295 27.7068 46.1404 27.9143 46.5633 28.3686C46.6838 28.4968 46.7797 28.6444 46.8538 28.8108C46.9179 28.9541 46.9602 29.1041 46.982 29.2602C47.0755 29.9074 46.8091 30.6569 46.1775 31.5358L46.1763 31.5352Z" fill="#F6F1ED"/>
<path d="M30.7347 38.0266C30.6094 38.0266 30.4824 37.9915 30.3689 37.9171C30.049 37.709 29.9537 37.2729 30.156 36.9438L32.6382 32.9068C32.8405 32.5771 33.2639 32.4791 33.5844 32.6878C33.9043 32.8959 33.9996 33.332 33.7973 33.6611L31.3151 37.6981C31.1845 37.9104 30.9622 38.0266 30.7347 38.0266Z" fill="white"/>
<path d="M33.8041 37.992C33.6823 37.992 33.5588 37.9587 33.4477 37.8885C33.1243 37.6853 33.0225 37.2516 33.2195 36.9189L35.0666 33.8067C35.2642 33.474 35.6859 33.3694 36.0093 33.572C36.3327 33.7753 36.4345 34.209 36.2375 34.5417L34.3904 37.6538C34.261 37.8716 34.0358 37.992 33.8041 37.992Z" fill="white"/>
<path d="M22.4411 40.2839L31.8031 40.2676C30.8922 40.7678 29.9901 41.2415 29.1056 41.683L20.714 41.6981L18.3729 41.7024H18.2423C17.8642 41.7024 17.5572 41.3872 17.5566 40.9983C17.5566 40.6087 17.8624 40.2924 18.2411 40.2918L19.8983 40.2887L22.4411 40.2845V40.2839Z" fill="white"/>
<path d="M40.5633 34.645C37.8429 33.293 34.2487 31.8909 32.2452 31.1614L27.9711 37.7704L26.8291 36.9889L31.3984 29.9238C31.5707 29.657 31.897 29.5433 32.1922 29.6479C32.3322 29.6975 33.5354 30.127 35.1602 30.7634C35.8029 31.0156 36.5122 31.3005 37.2478 31.6072C38.7609 32.2387 40.3834 32.9627 41.7712 33.6886C41.3884 34.0032 40.9855 34.3225 40.5633 34.645Z" fill="white"/>
<path d="M45.8224 39.6685C45.3184 40.9351 44.0741 41.6604 42.4087 41.6604L32.6074 41.6773C32.8632 41.5364 33.1196 41.3936 33.376 41.2484C33.9511 40.9236 34.518 40.5946 35.0743 40.2625L42.4069 40.2498C43.4889 40.2498 44.2705 39.8433 44.5528 39.1337C44.848 38.3909 44.5557 37.4213 43.8065 36.664C43.4519 36.3047 42.8591 35.8988 42.117 35.4705C42.5181 35.1529 42.8997 34.839 43.2614 34.5293C43.8953 34.9219 44.4169 35.3024 44.768 35.658C45.9335 36.8364 46.3375 38.3728 45.8218 39.6685H45.8224Z" fill="white"/>
<path d="M18.4372 38.8439C18.4213 38.8439 18.4048 38.8439 18.389 38.8421C18.0108 38.8148 17.7262 38.4779 17.7527 38.0896L18.0455 33.7858C18.3919 29.7753 20.3607 29.5594 20.9582 29.589C22.1743 29.6229 22.5683 30.4365 23.027 30.9809C23.7533 31.8422 23.9391 32.5602 25.7844 32.2197C27.2052 31.9578 28.4443 29.8364 28.7924 28.9575C28.9353 28.597 29.3346 28.4228 29.6857 28.5698C30.0361 28.7162 30.2055 29.1269 30.0632 29.488C29.9991 29.6507 28.4437 33.2601 25.8627 33.6285C23.2881 33.9957 22.7765 32.8954 21.875 31.7467C21.4704 31.2307 21.3928 31.0129 20.9265 30.9996C20.3102 30.9748 19.6021 31.7158 19.4134 33.8977L19.1217 38.1882C19.0964 38.5602 18.7953 38.8445 18.4384 38.8445L18.4372 38.8439Z" fill="white"/>
</svg>
