<svg width="234" height="234" viewBox="0 0 234 234" fill="none" xmlns="http://www.w3.org/2000/svg">
<path d="M44.3975 186.022C83.5778 191.085 123.735 186.241 155.412 159.707C184.004 135.757 191.956 100.913 154.438 81.1879C136.677 71.8502 109.378 72.6509 96.1575 89.4853C81.4292 108.24 108.503 123.875 124.319 124.432C161.26 125.733 198.394 98.3324 203.055 58.0999C208.575 10.4553 159.272 12.4245 159.392 12.7295" stroke="black" stroke-width="6" stroke-miterlimit="1.5" stroke-linecap="round" stroke-linejoin="round"/>
<path d="M70.3592 221.562C69.5088 217.276 66.9808 213.813 64.6356 210.227C56.936 198.454 44.8799 188.235 30.8877 184.926C46.4056 183.588 66.1018 176.622 73.354 161.95" stroke="black" stroke-width="6" stroke-miterlimit="1.5" stroke-linecap="round" stroke-linejoin="round"/>
</svg>
