<svg width="40" height="40" viewBox="0 0 40 40" fill="none" xmlns="http://www.w3.org/2000/svg">
<rect width="40" height="40" rx="20" fill="#384897"/>
<g clip-path="url(#clip0_2048_5631)">
<path d="M30.1886 11.4598C27.8724 9.04576 23.7051 9.04426 21.3871 11.4561L20.3099 12.5027L19.1052 11.298C16.5659 8.75872 12.4341 8.75872 9.89486 11.298C7.3684 13.7221 7.36836 18.0843 9.89486 20.5084L10.0169 20.6304L9.77848 20.8689C8.86972 21.7408 8.86977 23.3096 9.77848 24.1815L9.79923 24.2023C10.2357 24.6388 10.8143 24.8813 11.4306 24.8878C11.437 25.5041 11.6796 26.0826 12.1161 26.5191L12.1368 26.5398C12.5818 26.9847 13.1755 27.2296 13.8049 27.2256C13.8202 27.8284 14.0616 28.3929 14.4895 28.8209L14.5103 28.8417C15.3822 29.7504 16.9511 29.7504 17.823 28.8417L18.1364 28.5283L19.5386 29.9305C20.4406 30.8325 21.9084 30.8325 22.8105 29.9305C23.2526 29.4884 23.4774 28.9105 23.4862 28.3298C24.6852 28.3359 25.743 27.3005 25.7614 26.1007C27.4724 26.0822 28.5064 24.161 27.5905 22.7222L30.1745 20.2786C32.6031 17.9644 32.6092 13.7818 30.1886 11.4598ZM12.116 23.2064C11.7683 23.5687 11.1427 23.5687 10.7951 23.2064L10.7743 23.1857C10.412 22.838 10.412 22.2124 10.7743 21.8648L12.0674 20.5716C12.4317 20.2073 13.0243 20.2076 13.3886 20.5719L13.4091 20.5924C13.7733 20.9565 13.7733 21.549 13.4093 21.9132L12.116 23.2064ZM14.4536 25.544C14.1059 25.9064 13.4803 25.9063 13.1327 25.544L13.1119 25.5232C12.7496 25.1756 12.7496 24.55 13.1119 24.2023L15.2256 22.0886C15.5735 21.7262 16.1988 21.7263 16.5468 22.0889L16.5673 22.1094C16.9296 22.4571 16.9296 23.0827 16.5673 23.4304L14.4536 25.544ZM17.6653 27.0076L16.827 27.8458C16.4791 28.2082 15.8538 28.2082 15.5058 27.8455L15.4852 27.8249C15.1229 27.4773 15.123 26.8517 15.4853 26.5041L16.3236 25.6659C16.6715 25.3034 17.2968 25.3035 17.6448 25.6662L17.6653 25.6867C18.0277 26.0343 18.0276 26.6599 17.6653 27.0076ZM26.2888 24.4604C25.9789 24.7702 25.4749 24.7703 25.165 24.4604L23.7679 23.0633C23.4929 22.7883 23.047 22.7883 22.772 23.0633C22.497 23.3383 22.497 23.7842 22.772 24.0592L24.0909 25.3781C24.905 26.2627 23.6944 27.472 22.8108 26.6583L21.4988 25.3463C21.2238 25.0714 20.7779 25.0714 20.5029 25.3463C20.2279 25.6213 20.2279 26.0672 20.5029 26.3422L21.8081 27.6474C21.8103 27.6497 21.8122 27.6522 21.8145 27.6545C22.1675 28.0075 22.1675 28.5818 21.8145 28.9347C21.4616 29.2877 20.8873 29.2876 20.5344 28.9347L19.0644 27.4647C19.5575 26.5842 19.3903 25.3967 18.6609 24.6906L18.6404 24.6701C18.401 24.4306 18.1186 24.25 17.811 24.1341C18.4756 23.2415 18.3686 21.889 17.5629 21.1133L17.5423 21.0928C16.8941 20.4271 15.8443 20.2229 14.9926 20.5825C14.8853 20.2213 14.6894 19.881 14.4047 19.5963L14.3842 19.5758C13.4709 18.6625 11.9849 18.6625 11.0714 19.5758L11.0126 19.6346L10.8907 19.5126C8.90047 17.5224 8.90047 14.2842 10.8907 12.294C12.8809 10.3039 16.1191 10.3039 18.1092 12.294L19.2996 13.4843L17.0422 15.6775C16.0342 16.6122 16.0202 18.3303 17.0126 19.2814C17.9981 20.2669 19.6017 20.2669 20.5872 19.2814L21.3659 18.5028C21.3903 18.4783 21.4302 18.4783 21.4547 18.5028L26.2887 23.3367C26.597 23.6325 26.597 24.1646 26.2888 24.4604ZM29.1994 19.2622L26.6331 21.6892L22.4507 17.5068C21.9031 16.9361 20.9177 16.9361 20.3701 17.5068L19.5915 18.2854C19.1551 18.7218 18.445 18.7218 18.0086 18.2853C17.5688 17.8634 17.5753 17.1034 18.0227 16.6886L22.3722 12.4628C27.0712 8.1201 33.5214 14.5498 29.1994 19.2622Z" fill="white"/>
</g>
<defs>
<clipPath id="clip0_2048_5631">
<rect width="24" height="24" fill="white" transform="translate(8 8)"/>
</clipPath>
</defs>
</svg>
