<svg width="68" height="68" viewBox="0 0 68 68" fill="none" xmlns="http://www.w3.org/2000/svg">
<path d="M33.9745 44.36C32.5945 44.36 31.3445 44.12 30.2245 43.64C29.1045 43.14 28.2045 42.38 27.5245 41.36C26.8445 40.34 26.4845 39.06 26.4445 37.52H30.2245C30.2445 38.54 30.5745 39.4 31.2145 40.1C31.8745 40.78 32.7945 41.12 33.9745 41.12C35.0945 41.12 35.9545 40.81 36.5545 40.19C37.1545 39.57 37.4545 38.79 37.4545 37.85C37.4545 36.75 37.0545 35.92 36.2545 35.36C35.4745 34.78 34.4645 34.49 33.2245 34.49H31.6645V31.34H33.2545C34.2745 31.34 35.1245 31.1 35.8045 30.62C36.4845 30.14 36.8245 29.43 36.8245 28.49C36.8245 27.71 36.5645 27.09 36.0445 26.63C35.5445 26.15 34.8445 25.91 33.9445 25.91C32.9645 25.91 32.1945 26.2 31.6345 26.78C31.0945 27.36 30.7945 28.07 30.7345 28.91H26.9845C27.0645 26.97 27.7345 25.44 28.9945 24.32C30.2745 23.2 31.9245 22.64 33.9445 22.64C35.3845 22.64 36.5945 22.9 37.5745 23.42C38.5745 23.92 39.3245 24.59 39.8245 25.43C40.3445 26.27 40.6045 27.2 40.6045 28.22C40.6045 29.4 40.2745 30.4 39.6145 31.22C38.9745 32.02 38.1745 32.56 37.2145 32.84C38.3945 33.08 39.3545 33.66 40.0945 34.58C40.8345 35.48 41.2045 36.62 41.2045 38C41.2045 39.16 40.9245 40.22 40.3645 41.18C39.8045 42.14 38.9845 42.91 37.9045 43.49C36.8445 44.07 35.5345 44.36 33.9745 44.36Z" fill="black"/>
<rect x="0.5" y="0.5" width="67" height="67" rx="33.5" stroke="black"/>
</svg>
