<svg width="68" height="68" viewBox="0 0 68 68" fill="none" xmlns="http://www.w3.org/2000/svg">
<path d="M26.9607 44V41.21C28.2407 40.15 29.4807 39.1 30.6807 38.06C31.9007 37.02 32.9807 35.99 33.9207 34.97C34.8807 33.95 35.6407 32.96 36.2007 32C36.7807 31.02 37.0707 30.07 37.0707 29.15C37.0707 28.29 36.8307 27.53 36.3507 26.87C35.8907 26.21 35.1207 25.88 34.0407 25.88C32.9407 25.88 32.1107 26.24 31.5507 26.96C30.9907 27.68 30.7107 28.55 30.7107 29.57H26.9907C27.0307 28.03 27.3707 26.75 28.0107 25.73C28.6507 24.69 29.5007 23.92 30.5607 23.42C31.6207 22.9 32.8107 22.64 34.1307 22.64C36.2707 22.64 37.9307 23.23 39.1107 24.41C40.3107 25.57 40.9107 27.08 40.9107 28.94C40.9107 30.1 40.6407 31.23 40.1007 32.33C39.5807 33.43 38.8907 34.49 38.0307 35.51C37.1707 36.53 36.2407 37.49 35.2407 38.39C34.2407 39.27 33.2707 40.09 32.3307 40.85H41.4207V44H26.9607Z" fill="black"/>
<rect x="0.5" y="0.5" width="67" height="67" rx="33.5" stroke="black"/>
</svg>
